<svg viewBox="0 0 266.1 62.7" xmlns="http://www.w3.org/2000/svg"><g fill-rule="evenodd" transform="translate(-264.4 -269.1)"><path d="m445.45 290.2a2.87 2.87 0 0 0 -2 .8 3.33 3.33 0 0 0 -.85 2h-5.6a8.5 8.5 0 0 1 1-4.1 6.68 6.68 0 0 1 2.8-2.8 9.35 9.35 0 0 1 4.5-1 9.89 9.89 0 0 1 4.65 1 6.9 6.9 0 0 1 2.9 2.6 6.57 6.57 0 0 1 1 3.55 5.73 5.73 0 0 1 -.5 2.3 13.11 13.11 0 0 1 -1.55 2.55q-1.05 1.4-2.75 3.4l-3.15 3.8h8.15v4.7h-16.6v-2.7l7.1-8.65q1-1.2 1.8-2.1a11.49 11.49 0 0 0 1.15-1.6 2.89 2.89 0 0 0 .4-1.45 2.33 2.33 0 0 0 -.6-1.55 2.47 2.47 0 0 0 -1.85-.75zm-114.55 8.8-13.7-6v-9l24 10.5zm13.5-3.2v9.2l-27.2 11.8v-9zm-52.8-11.8v9l-13.7 6-10.35-4.55zm0 32.8-27.2-11.8v-9.1l27.2 11.9z" fill="#28a9e0"/><path d="m405.7 289a8.11 8.11 0 0 1 1.3 3.85h-5.85a3.4 3.4 0 0 0 -1.1-2.1 3.92 3.92 0 0 0 -2.7-.85 4.26 4.26 0 0 0 -2.4.6 2 2 0 0 0 -.9 1.75 1.72 1.72 0 0 0 .65 1.45 5.12 5.12 0 0 0 2 .75l3.3.75a14.57 14.57 0 0 1 3.7 1.25 6.11 6.11 0 0 1 2.45 2.1 6.49 6.49 0 0 1 .85 3.45 7.12 7.12 0 0 1 -1.25 4 7.54 7.54 0 0 1 -3.35 2.6 14.49 14.49 0 0 1 -10.05.1 9.23 9.23 0 0 1 -3.8-2.7 8.8 8.8 0 0 1 -1.8-4.75h5.8a3.64 3.64 0 0 0 1.55 2.45 6.31 6.31 0 0 0 3.35.9 5 5 0 0 0 2.55-.6 1.74 1.74 0 0 0 .85-1.55 1.44 1.44 0 0 0 -.5-1.15 3.68 3.68 0 0 0 -1.95-.85l-3.85-.85a10.46 10.46 0 0 1 -5.15-2.4 6.19 6.19 0 0 1 -1.65-4.5 6.84 6.84 0 0 1 1.2-4 7.58 7.58 0 0 1 3.25-2.65 12 12 0 0 1 4.85-.9 12.29 12.29 0 0 1 3 .3 11 11 0 0 1 3.15 1.2 7.16 7.16 0 0 1 2.5 2.35zm6.4-3.4h9.45a14.37 14.37 0 0 1 6.5 1.5 10.8 10.8 0 0 1 4.45 4.1 11.55 11.55 0 0 1 -4.45 16.3 14.37 14.37 0 0 1 -6.5 1.5h-9.45zm9.45 5.25h-3.55v12.95h3.6a7.17 7.17 0 0 0 3.4-.9 6.14 6.14 0 0 0 2.4-2.3 6.38 6.38 0 0 0 .9-3.35 6.12 6.12 0 0 0 -.9-3.3 5.79 5.79 0 0 0 -2.4-2.25 6.77 6.77 0 0 0 -3.45-.8zm-39-1.25a9.28 9.28 0 0 1 -.1 9.3 8 8 0 0 1 -3.55 3 12.77 12.77 0 0 1 -5.55 1.1h-3.1v6h-5.85v-23.4h9.45a12.08 12.08 0 0 1 5.15 1.1 7.91 7.91 0 0 1 3.5 2.95zm-8.85 1.15h-3.5v7.25h3.45a4.56 4.56 0 0 0 3.1-1 3.74 3.74 0 0 0 1.15-2.8 3.19 3.19 0 0 0 -1.15-2.5 4.9 4.9 0 0 0 -3.1-.9zm86.5.25a11.37 11.37 0 0 1 4.4-4.3 13.29 13.29 0 0 1 6.35-1.6 13 13 0 0 1 5.7 1.3 11.41 11.41 0 0 1 4.1 3.55 11.83 11.83 0 0 1 1.9 5.35h-5.95a6.22 6.22 0 0 0 -2-3.45 5.67 5.67 0 0 0 -3.85-1.3 6.41 6.41 0 0 0 -5.65 3.25 8.06 8.06 0 0 0 0 7 6.4 6.4 0 0 0 5.65 3.25 5.66 5.66 0 0 0 3.85-1.3 6.22 6.22 0 0 0 2-3.45h5.95a11.83 11.83 0 0 1 -1.9 5.35 11.4 11.4 0 0 1 -4.1 3.55 13 13 0 0 1 -5.7 1.3 13.29 13.29 0 0 1 -6.35-1.6 11.37 11.37 0 0 1 -4.4-4.3 12.85 12.85 0 0 1 0-12.6zm51 1.7a6.84 6.84 0 0 1 1.2-4 7.59 7.59 0 0 1 3.2-2.7 12 12 0 0 1 4.85-.9 12.29 12.29 0 0 1 3 .3 11 11 0 0 1 3.15 1.2 7.16 7.16 0 0 1 2.5 2.4 8.12 8.12 0 0 1 1.3 3.85h-5.8a3.4 3.4 0 0 0 -1.1-2.1 3.92 3.92 0 0 0 -2.7-.85 4.26 4.26 0 0 0 -2.4.6 2 2 0 0 0 -.9 1.75 1.72 1.72 0 0 0 .65 1.45 5.11 5.11 0 0 0 2 .75l3.3.75a14.59 14.59 0 0 1 3.7 1.25 6.1 6.1 0 0 1 2.45 2.1 6.48 6.48 0 0 1 .9 3.35 7.12 7.12 0 0 1 -1.25 4 7.54 7.54 0 0 1 -3.35 2.6 14.49 14.49 0 0 1 -10.05.1 9.23 9.23 0 0 1 -3.85-2.6 8.8 8.8 0 0 1 -1.8-4.75h5.8a3.64 3.64 0 0 0 1.55 2.45 6.31 6.31 0 0 0 3.35.9 5 5 0 0 0 2.45-.55 1.74 1.74 0 0 0 .85-1.55 1.45 1.45 0 0 0 -.5-1.15 3.68 3.68 0 0 0 -2-.85l-3.85-.85a10.47 10.47 0 0 1 -5.15-2.4 6.19 6.19 0 0 1 -1.55-4.5zm-23.8 0a6.84 6.84 0 0 1 1.2-4 7.59 7.59 0 0 1 3.2-2.7 12 12 0 0 1 4.85-.9 12.29 12.29 0 0 1 3 .3 11 11 0 0 1 3.15 1.2 7.16 7.16 0 0 1 2.5 2.4 8.11 8.11 0 0 1 1.3 3.85h-5.8a3.4 3.4 0 0 0 -1.1-2.1 3.92 3.92 0 0 0 -2.7-.75 4.27 4.27 0 0 0 -2.4.6 2 2 0 0 0 -.9 1.75 1.72 1.72 0 0 0 .65 1.45 5.12 5.12 0 0 0 2 .75l3.3.75a14.58 14.58 0 0 1 3.7 1.25 6.09 6.09 0 0 1 2.45 2.1 6.49 6.49 0 0 1 .9 3.35 7.12 7.12 0 0 1 -1.25 4 7.54 7.54 0 0 1 -3.35 2.6 14.49 14.49 0 0 1 -10 .1 9.23 9.23 0 0 1 -3.8-2.7 8.8 8.8 0 0 1 -1.8-4.75h5.8a3.64 3.64 0 0 0 1.55 2.45 6.31 6.31 0 0 0 3.35.9 5 5 0 0 0 2.45-.55 1.74 1.74 0 0 0 .85-1.55 1.45 1.45 0 0 0 -.5-1.15 3.68 3.68 0 0 0 -2-.85l-3.85-.85a10.46 10.46 0 0 1 -5.15-2.4 6.19 6.19 0 0 1 -1.65-4.5z" fill="#2d3236"/><path d="m304 269.1 17.85 7.75-17.85 7.8-17.85-7.8zm0 47.15 17.85 7.75-17.85 7.8-17.85-7.8zm-17.85-15.8 17.85-7.75 17.85 7.75-17.85 7.8z" fill="#215398"/></g></svg>