<svg height="42" viewBox="0 0 42 42" width="42" xmlns="http://www.w3.org/2000/svg"><path d="m587.979 388.005a18.022 18.022 0 0 0 10.156 16.217l-8.6-23.55a17.944 17.944 0 0 0 -1.556 7.333zm30.184-.91a9.484 9.484 0 0 0 -1.486-4.969c-.913-1.484-1.77-2.741-1.77-4.226a3.12 3.12 0 0 1 3.026-3.2c.08 0 .156.01.233.015a18.016 18.016 0 0 0 -27.224 3.39c.424.013.822.022 1.16.022 1.885 0 4.8-.229 4.8-.229a.745.745 0 0 1 .115 1.485s-.976.114-2.062.171l6.562 19.519 3.943-11.827-2.807-7.692c-.97-.057-1.89-.171-1.89-.171a.745.745 0 0 1 .114-1.485s2.975.229 4.746.229c1.885 0 4.8-.229 4.8-.229a.745.745 0 0 1 .116 1.485s-.978.114-2.062.171l6.511 19.371 1.8-6.006a21.777 21.777 0 0 0 1.375-5.819zm-11.848 2.486-5.407 15.711a18.043 18.043 0 0 0 11.074-.292 1.609 1.609 0 0 1 -.128-.248zm15.495-10.221a13.894 13.894 0 0 1 .121 1.852 16.991 16.991 0 0 1 -1.37 6.455l-5.5 15.914a18.024 18.024 0 0 0 6.749-24.221zm-15.81-12.36a21.006 21.006 0 1 0 21.007 21 21.029 21.029 0 0 0 -21.007-21zm0 41.048a20.043 20.043 0 1 1 20.041-20.043 20.066 20.066 0 0 1 -20.041 20.043z" fill="#b3b3b3" fill-rule="evenodd" transform="translate(-585 -367)"/></svg>